<svg width="50" height="50" viewBox="0 0 50 50" fill="none" xmlns="http://www.w3.org/2000/svg">
<path fill-rule="evenodd" clip-rule="evenodd" d="M25 8.3335C15.7932 8.3335 8.33331 15.7954 8.33331 25.0002C8.33331 34.2069 15.7952 41.6668 25 41.6668C34.2067 41.6668 41.6666 34.2049 41.6666 25.0002C41.6666 15.7934 34.2047 8.3335 25 8.3335ZM23.1481 16.2086V23.1485H15.7453C14.7329 23.1485 13.8889 23.9776 13.8889 25.0004C13.8889 26.0303 14.72 26.8522 15.7453 26.8522H23.1481V34.7179C23.1481 35.7304 23.9772 36.5744 25 36.5744C26.0299 36.5744 26.8518 35.7432 26.8518 34.7179V26.8522H34.2547C35.2671 26.8522 36.1111 26.0231 36.1111 25.0004C36.1111 23.9705 35.2799 23.1485 34.2547 23.1485H26.8518V16.2086C26.8518 15.1961 26.0227 14.3521 25 14.3521C23.9701 14.3521 23.1481 15.1833 23.1481 16.2086Z" fill="#FF7171"/>
</svg>
