<svg width="974" height="833" viewBox="0 0 974 833" fill="none" xmlns="http://www.w3.org/2000/svg">
<path d="M973.5 637.5C973.5 841.293 589.5 811.5 246.5 832.5C-2.30435 832.5 1.00002 262.793 1.00002 58.9997C1.00002 -144.793 207.696 245.5 456.5 245.5C705.304 245.5 973.5 433.707 973.5 637.5Z" fill="#F6F6F6"/>
<path opacity="0.0714286" d="M724.453 741.174C791.957 741.174 846.679 730.491 846.679 717.312C846.679 704.133 791.957 693.45 724.453 693.45C656.949 693.45 602.226 704.133 602.226 717.312C602.226 730.491 656.949 741.174 724.453 741.174Z" fill="#3D3D3D"/>
<path d="M747.241 431.348H701.665C660.439 431.348 627.085 390.657 627.085 340.673V205.289H821.82V340.673C821.82 390.657 788.466 431.348 747.241 431.348Z" fill="white"/>
<path d="M673.179 343.938V205.289H627.085V340.673C627.085 390.657 660.439 431.348 701.664 431.348H728.803C696.796 421.175 673.179 385.885 673.179 343.938Z" fill="white"/>
<path fill-rule="evenodd" clip-rule="evenodd" d="M747.241 431.348H701.665C660.439 431.348 627.085 390.657 627.085 340.673V205.289H821.82V340.673C821.82 390.657 788.466 431.348 747.241 431.348Z" stroke="#3D3D3D" stroke-width="6" stroke-linecap="round" stroke-linejoin="round"/>
<path d="M808.768 120.893C753.248 106.073 695.657 106.073 640.033 120.893C632.472 122.902 626.982 131.066 626.982 140.485V205.037C690.892 224.88 757.806 224.88 821.716 205.037V140.485C821.82 131.191 816.433 123.028 808.768 120.893Z" fill="white"/>
<path d="M808.768 120.893C806.904 120.39 805.04 119.888 803.175 119.386V210.312C809.39 208.805 815.605 207.046 821.82 205.037V140.485C821.82 131.191 816.433 123.028 808.768 120.893Z" fill="white"/>
<path d="M673.179 147.015C673.179 134.331 676.287 122.525 681.673 112.604C667.69 114.488 653.81 117.251 640.137 120.893C632.575 122.902 627.085 131.065 627.085 140.485V205.037C642.312 209.809 657.746 213.326 673.179 215.838V147.015Z" fill="white"/>
<path d="M830.106 327.109H821.82V259.292H830.106C836.943 259.292 842.536 266.45 842.536 274.739V312.415C842.536 320.704 836.943 327.109 830.106 327.109Z" fill="white"/>
<path fill-rule="evenodd" clip-rule="evenodd" d="M830.106 327.109H821.82V259.292H830.106C836.943 259.292 842.536 266.45 842.536 274.739V312.415C842.536 320.704 836.943 327.109 830.106 327.109Z" stroke="#3D3D3D" stroke-width="6" stroke-linecap="round" stroke-linejoin="round"/>
<path d="M618.799 327.109H627.085V259.292H618.799C611.962 259.292 606.369 266.45 606.369 274.739V312.415C606.369 320.704 611.962 327.109 618.799 327.109Z" fill="white"/>
<path fill-rule="evenodd" clip-rule="evenodd" d="M618.799 327.109H627.085V259.292H618.799C611.962 259.292 606.369 266.45 606.369 274.739V312.415C606.369 320.704 611.962 327.109 618.799 327.109Z" stroke="#3D3D3D" stroke-width="6" stroke-linecap="round" stroke-linejoin="round"/>
<path d="M717.927 394.048C719.377 379.856 730.046 369.684 741.751 371.442C744.651 371.819 747.448 373.074 749.83 374.707" stroke="#3D3D3D" stroke-width="6" stroke-linecap="round" stroke-linejoin="round"/>
<path d="M665.411 584.942V697.972H721.345V638.568C721.345 635.052 723.727 632.289 726.524 632.289C729.424 632.289 731.703 635.052 731.703 638.568V697.972H787.638V584.942H665.411Z" fill="#3D3D3D"/>
<path fill-rule="evenodd" clip-rule="evenodd" d="M665.411 584.942V697.972H721.345V638.568C721.345 635.052 723.727 632.289 726.524 632.289V632.289V632.289V632.289C729.424 632.289 731.703 635.052 731.703 638.568V697.972H787.638V584.942H665.411Z" stroke="#3D3D3D" stroke-width="6" stroke-linecap="round" stroke-linejoin="round"/>
<path d="M806.075 632.791C816.659 632.791 825.238 622.389 825.238 609.557C825.238 596.725 816.659 586.323 806.075 586.323C795.492 586.323 786.913 596.725 786.913 609.557C786.913 622.389 795.492 632.791 806.075 632.791Z" fill="white"/>
<path fill-rule="evenodd" clip-rule="evenodd" d="M806.075 632.791C816.659 632.791 825.238 622.389 825.238 609.557C825.238 596.725 816.659 586.323 806.075 586.323C795.492 586.323 786.913 596.725 786.913 609.557C786.913 622.389 795.492 632.791 806.075 632.791Z" stroke="#3D3D3D" stroke-width="6" stroke-linecap="round" stroke-linejoin="round"/>
<path d="M686.541 337.156C704.848 337.156 719.688 319.163 719.688 296.968C719.688 274.772 704.848 256.779 686.541 256.779C668.235 256.779 653.395 274.772 653.395 296.968C653.395 319.163 668.235 337.156 686.541 337.156Z" fill="white"/>
<path fill-rule="evenodd" clip-rule="evenodd" d="M686.541 337.156C704.848 337.156 719.688 319.163 719.688 296.968C719.688 274.772 704.848 256.779 686.541 256.779C668.235 256.779 653.395 274.772 653.395 296.968C653.395 319.163 668.235 337.156 686.541 337.156Z" stroke="#3D3D3D" stroke-width="6" stroke-linecap="round" stroke-linejoin="round"/>
<path d="M703.425 315.806C711.434 315.806 717.927 307.934 717.927 298.224C717.927 288.514 711.434 280.642 703.425 280.642C695.416 280.642 688.924 288.514 688.924 298.224C688.924 307.934 695.416 315.806 703.425 315.806Z" fill="#3D3D3D"/>
<path d="M708.604 304.503C711.465 304.503 713.784 301.692 713.784 298.224C713.784 294.756 711.465 291.944 708.604 291.944C705.744 291.944 703.425 294.756 703.425 298.224C703.425 301.692 705.744 304.503 708.604 304.503Z" fill="white"/>
<path d="M721.345 697.972H665.411V708.019C665.411 712.163 668.207 715.554 671.626 715.554H715.13C718.548 715.554 721.345 712.163 721.345 708.019V697.972Z" fill="white"/>
<path d="M737.918 715.554H781.422C784.841 715.554 787.637 712.163 787.637 708.019V697.972H731.703V708.019C731.703 712.163 734.5 715.554 737.918 715.554Z" fill="white"/>
<path fill-rule="evenodd" clip-rule="evenodd" d="M721.345 697.972H665.411V708.019C665.411 712.163 668.207 715.554 671.626 715.554H715.13C718.548 715.554 721.345 712.163 721.345 708.019V697.972Z" stroke="#3D3D3D" stroke-width="6" stroke-linecap="round" stroke-linejoin="round"/>
<path fill-rule="evenodd" clip-rule="evenodd" d="M737.918 715.554H781.422C784.841 715.554 787.637 712.163 787.637 708.019V697.972H731.703V708.019C731.703 712.163 734.5 715.554 737.918 715.554Z" stroke="#3D3D3D" stroke-width="6" stroke-linecap="round" stroke-linejoin="round"/>
<path d="M647.18 635.051C657.878 635.051 666.55 624.537 666.55 611.566C666.55 598.596 657.878 588.082 647.18 588.082C636.483 588.082 627.811 598.596 627.811 611.566C627.811 624.537 636.483 635.051 647.18 635.051Z" fill="white"/>
<path fill-rule="evenodd" clip-rule="evenodd" d="M647.18 635.051C657.878 635.051 666.55 624.537 666.55 611.566C666.55 598.596 657.878 588.082 647.18 588.082C636.483 588.082 627.811 598.596 627.811 611.566C627.811 624.537 636.483 635.051 647.18 635.051Z" stroke="#3D3D3D" stroke-width="6" stroke-linecap="round" stroke-linejoin="round"/>
<path d="M825.341 609.055L817.469 499.918C816.019 480.327 803.175 465.256 787.637 462.87C787.637 462.87 787.637 462.87 787.637 462.744C747.033 456.59 706.015 456.59 665.411 462.744C665.411 462.744 665.411 462.744 665.411 462.87C649.77 465.13 637.029 480.452 635.579 500.17L627.707 609.306L664.893 613.199L665.929 598.505C706.118 604.659 746.826 604.659 787.016 598.505L788.052 613.074L825.341 609.055Z" fill="white"/>
<path fill-rule="evenodd" clip-rule="evenodd" d="M825.341 609.055L817.469 499.918C816.019 480.327 803.175 465.256 787.637 462.87C787.637 462.87 787.637 462.87 787.637 462.744C747.033 456.59 706.015 456.59 665.411 462.744C665.411 462.744 665.411 462.744 665.411 462.87C649.77 465.13 637.029 480.452 635.579 500.17L627.707 609.306L664.893 613.199L665.929 598.505C703.943 605.915 746.723 606.292 787.016 598.505L788.052 613.074L825.341 609.055Z" stroke="#3D3D3D" stroke-width="6" stroke-linecap="round" stroke-linejoin="round"/>
<path d="M664.893 613.199L671.937 515.492" stroke="#3D3D3D" stroke-width="6" stroke-linecap="round" stroke-linejoin="round"/>
<path d="M787.12 598.506L781.112 515.492" stroke="#3D3D3D" stroke-width="6" stroke-linecap="round" stroke-linejoin="round"/>
<path d="M810.633 111.097C782.355 103.562 753.455 99.6685 724.452 99.6685C695.553 99.6685 666.55 103.436 638.272 111.097C626.982 114.111 618.799 126.544 618.799 140.485V163.719L625.014 164.974C632.679 166.481 640.447 167.737 648.113 168.993L654.224 144.755H662.303L663.443 171.003C670.486 171.882 677.633 172.51 684.781 173.012L687.163 144.755L690.374 173.514C699.386 174.142 708.397 174.519 717.409 174.519L721.345 147.266L724.452 174.645L739.472 170.249L745.894 132.824L764.124 173.012C771.686 172.384 779.247 171.756 786.809 170.751V141.489L792.195 140.233L801.103 168.742C805.661 168.114 810.322 167.361 814.88 166.481C814.362 153.295 813.533 128.679 815.19 132.573C816.848 136.466 822.441 154.802 825.341 164.472L830.003 163.593V140.359C830.106 126.544 821.923 114.111 810.633 111.097Z" fill="#3D3D3D"/>
<path fill-rule="evenodd" clip-rule="evenodd" d="M810.633 111.097C782.355 103.562 753.455 99.6685 724.452 99.6685C695.553 99.6685 666.55 103.436 638.272 111.097C626.982 114.111 618.799 126.544 618.799 140.485V163.719L625.014 164.974C632.679 166.481 640.447 167.737 648.113 168.993L654.224 144.755H662.303L663.443 171.003C670.486 171.882 677.633 172.51 684.781 173.012L687.163 144.755L690.374 173.514C699.386 174.142 708.397 174.519 717.409 174.519L721.345 147.266L724.452 174.645L739.472 170.249L745.894 132.824L764.124 173.012C771.686 172.384 779.247 171.756 786.809 170.751V141.489L792.195 140.233L801.103 168.742C805.661 168.114 810.322 167.361 814.88 166.481C814.362 153.295 813.533 128.679 815.19 132.573C816.848 136.466 822.441 154.802 825.341 164.472L830.003 163.593V140.359C830.106 126.544 821.923 114.111 810.633 111.097Z" stroke="#3D3D3D" stroke-width="2" stroke-linecap="round" stroke-linejoin="round"/>
<path fill-rule="evenodd" clip-rule="evenodd" d="M808.768 123.153C753.248 108.585 695.657 108.585 640.033 123.153C632.472 125.163 626.982 133.075 626.982 142.368V205.414C690.892 224.88 757.806 224.88 821.716 205.414V142.368C821.82 133.2 816.433 125.163 808.768 123.153Z" stroke="#3D3D3D" stroke-width="6" stroke-linecap="round" stroke-linejoin="round"/>
<path d="M658.678 232.918H658.056C653.706 232.918 650.081 228.648 650.081 223.247V202.4C650.081 197.125 653.602 192.729 658.056 192.729H658.678C663.028 192.729 666.654 196.999 666.654 202.4V223.247C666.654 228.648 663.028 232.918 658.678 232.918Z" fill="white"/>
<path fill-rule="evenodd" clip-rule="evenodd" d="M658.678 232.918H658.056C653.706 232.918 650.081 228.648 650.081 223.247V202.4C650.081 197.125 653.602 192.729 658.056 192.729H658.678C663.028 192.729 666.654 196.999 666.654 202.4V223.247C666.654 228.648 663.028 232.918 658.678 232.918Z" stroke="#3D3D3D" stroke-width="6" stroke-linecap="round" stroke-linejoin="round"/>
<path d="M699.593 236.936H698.971C694.621 236.936 690.995 232.666 690.995 227.266V206.418C690.995 201.144 694.517 196.748 698.971 196.748H699.593C703.943 196.748 707.569 201.018 707.569 206.418V227.266C707.569 232.666 703.943 236.936 699.593 236.936Z" fill="white"/>
<path fill-rule="evenodd" clip-rule="evenodd" d="M699.593 236.936H698.971C694.621 236.936 690.995 232.666 690.995 227.266V206.418C690.995 201.144 694.517 196.748 698.971 196.748H699.593C703.943 196.748 707.569 201.018 707.569 206.418V227.266C707.569 232.666 703.943 236.936 699.593 236.936Z" stroke="#3D3D3D" stroke-width="6" stroke-linecap="round" stroke-linejoin="round"/>
<path d="M741.958 234.802H741.336C736.986 234.802 733.361 230.532 733.361 225.131V204.284C733.361 199.009 736.882 194.613 741.336 194.613H741.958C746.308 194.613 749.934 198.883 749.934 204.284V225.131C749.934 230.532 746.308 234.802 741.958 234.802Z" fill="white"/>
<path fill-rule="evenodd" clip-rule="evenodd" d="M741.958 234.802H741.336C736.986 234.802 733.361 230.532 733.361 225.131V204.284C733.361 199.009 736.882 194.613 741.336 194.613H741.958C746.308 194.613 749.934 198.883 749.934 204.284V225.131C749.934 230.532 746.308 234.802 741.958 234.802Z" stroke="#3D3D3D" stroke-width="6" stroke-linecap="round" stroke-linejoin="round"/>
<path d="M785.98 234.802H785.359C781.008 234.802 777.383 230.532 777.383 225.131V204.284C777.383 199.009 780.905 194.613 785.359 194.613H785.98C790.331 194.613 793.956 198.883 793.956 204.284V225.131C793.956 230.532 790.331 234.802 785.98 234.802Z" fill="white"/>
<path fill-rule="evenodd" clip-rule="evenodd" d="M785.98 234.802H785.359C781.008 234.802 777.383 230.532 777.383 225.131V204.284C777.383 199.009 780.905 194.613 785.359 194.613H785.98C790.331 194.613 793.956 198.883 793.956 204.284V225.131C793.956 230.532 790.331 234.802 785.98 234.802Z" stroke="#3D3D3D" stroke-width="6" stroke-linecap="round" stroke-linejoin="round"/>
<rect x="821.82" y="197.753" width="16.5732" height="15.0706" stroke="#3D3D3D" stroke-width="6" stroke-linecap="round" stroke-linejoin="round"/>
<path fill-rule="evenodd" clip-rule="evenodd" d="M848.337 225.383H845.022C841.397 225.383 838.393 221.741 838.393 217.345V193.232C838.393 188.836 841.397 185.194 845.022 185.194H848.337C851.962 185.194 854.966 188.836 854.966 193.232V217.345C854.966 221.741 851.962 225.383 848.337 225.383Z" stroke="#3D3D3D" stroke-width="6" stroke-linecap="round" stroke-linejoin="round"/>
<path fill-rule="evenodd" clip-rule="evenodd" d="M627.085 212.824L610.512 212.824L610.512 197.753L627.085 197.753L627.085 212.824Z" stroke="#3D3D3D" stroke-width="6" stroke-linecap="round" stroke-linejoin="round"/>
<path fill-rule="evenodd" clip-rule="evenodd" d="M600.568 225.383H603.883C607.508 225.383 610.512 221.741 610.512 217.345V193.232C610.512 188.836 607.508 185.194 603.883 185.194H600.568C596.943 185.194 593.939 188.836 593.939 193.232V217.345C593.939 221.741 596.943 225.383 600.568 225.383Z" stroke="#3D3D3D" stroke-width="6" stroke-linecap="round" stroke-linejoin="round"/>
<path d="M731.91 476.559H721.034C712.644 476.559 705.704 468.271 705.704 457.972V431.348H747.137V457.972C747.24 468.271 740.404 476.559 731.91 476.559Z" fill="white"/>
<path fill-rule="evenodd" clip-rule="evenodd" d="M731.91 476.559H721.034C712.644 476.559 705.704 468.271 705.704 457.972V431.348H747.137V457.972C747.24 468.271 740.404 476.559 731.91 476.559Z" stroke="#3D3D3D" stroke-width="6" stroke-linecap="round" stroke-linejoin="round"/>
<path d="M760.085 327.109C775.531 327.109 788.052 311.928 788.052 293.2C788.052 274.473 775.531 259.292 760.085 259.292C744.639 259.292 732.118 274.473 732.118 293.2C732.118 311.928 744.639 327.109 760.085 327.109Z" fill="white"/>
<path fill-rule="evenodd" clip-rule="evenodd" d="M760.085 327.109C775.531 327.109 788.052 311.928 788.052 293.2C788.052 274.473 775.531 259.292 760.085 259.292C744.639 259.292 732.118 274.473 732.118 293.2C732.118 311.928 744.639 327.109 760.085 327.109Z" stroke="#3D3D3D" stroke-width="6" stroke-linecap="round" stroke-linejoin="round"/>
<path d="M745.687 312.039C751.98 312.039 757.081 305.854 757.081 298.224C757.081 290.594 751.98 284.409 745.687 284.409C739.394 284.409 734.293 290.594 734.293 298.224C734.293 305.854 739.394 312.039 745.687 312.039Z" fill="#3D3D3D"/>
<path d="M742.061 301.991C744.064 301.991 745.687 300.023 745.687 297.596C745.687 295.168 744.064 293.2 742.061 293.2C740.059 293.2 738.436 295.168 738.436 297.596C738.436 300.023 740.059 301.991 742.061 301.991Z" fill="white"/>
</svg>
