<svg width="522" height="505" viewBox="0 0 522 505" fill="none" xmlns="http://www.w3.org/2000/svg">
<path fill-rule="evenodd" clip-rule="evenodd" d="M418.159 146.869C466.554 200.888 515.084 251.921 521.302 309.351C527.521 366.781 491.427 430.75 443.032 466.289C394.502 501.827 333.67 508.935 278.245 503.249C222.821 497.562 172.804 479.082 119.136 443.544C65.6045 408.006 8.28745 355.409 0.852451 294.993C-6.58255 234.436 35.5942 166.06 89.2613 112.042C142.793 58.0234 207.816 18.3625 264.592 27.0339C321.233 35.8474 369.763 92.851 418.159 146.869Z" fill="#F6F6F6"/>
<path opacity="0.12" fill-rule="evenodd" clip-rule="evenodd" d="M283.015 58.7266H242.9V169.235H242.735V267.088H227.142V206.737H226.734L207.084 132.732L187.433 206.737H187.026V267.088H168.403V101.016H138.317V131.953L121.125 148.771V164.502H60.0876V443.855H121.469H167.88H187.026H227.142H247.227H283.157H349.031H410.52H414.904H476.285H476.423H518.206V229.999L476.423 197.75V88.9327H410.52V254.463H401.925V176.531H371.839V254.463H349.031V227.632H346.094L349.031 226.843L322.083 200.801V169.235H283.015V58.7266ZM60.0875 208.693H13.6769V443.855H60.0875V208.693Z" fill="url(#paint0_radial)"/>
<path d="M245.234 117.602C259.044 110.554 266.719 119.393 278.785 118.143C291.754 118.408 290.185 109.741 300.285 111.908C305.483 113.022 332.465 163.151 336.091 202.115C340.161 245.842 304.674 273.592 289.283 320.936C279.526 350.952 293.755 393.517 296.372 405.286C291.345 405.806 267.827 404.546 250.472 394.783C228.779 382.579 181.331 340.509 138.234 334.152C98.8623 328.343 64.0328 338.616 17.0258 357.124C46.5366 297.885 111.417 283.256 148.713 250.393C186.008 217.529 219.594 130.684 245.234 117.602Z" fill="url(#paint1_linear)"/>
<path d="M263.583 102.057C264.322 110.008 263.406 116.524 259.932 120.094C263.697 122.38 272.903 126.94 279.6 126.889C287.968 126.827 297.033 117.863 294.771 118.095C293.261 118.252 289.535 108.202 288.159 104.332C281.223 103.444 263.395 100.047 263.583 102.057Z" fill="#E9A99C"/>
<path d="M297.359 106.374C297.475 102.003 295.186 90.0271 293.224 82.9645C290.623 73.0185 284.488 66.1622 272.027 65.408C259.566 64.6537 255.318 72.5695 254.424 79.4869C252.907 91.2204 261.205 103.302 266.104 106.882C271.003 110.462 297.216 111.837 297.359 106.374Z" fill="#F6B3A6"/>
<path d="M257.951 88.4372C260.38 87.1234 263.365 90.5945 264.386 94.5656L268.967 94.7703C266.051 91.4494 261.543 82.2247 262.176 77.8129C262.966 72.2968 267.815 68.3983 277.101 70.1545C283.523 71.3692 288.992 70.1099 291.757 66.6009C295.253 62.1643 292.108 56.3759 289.797 52.5401C286.676 47.3608 284.688 48.9923 281.926 51.9955C277.785 56.4997 266.696 56.8529 260.359 58.3021C249.514 60.7828 248.705 73.0924 249.206 78.4747C249.832 85.2022 255.476 96.845 258.891 98.5302C257.933 95.2324 254.85 90.1175 257.951 88.4372Z" fill="#64331E"/>
<path fill-rule="evenodd" clip-rule="evenodd" d="M254.285 274.926C266.371 278.952 273.755 290.915 267.398 304.415C261.04 317.916 224.888 357.121 191.884 387.021C191.812 387.087 191.74 387.152 191.666 387.216C182.886 397.425 130.661 442.428 123.72 445.915C117.901 448.84 117.479 444.311 117.034 439.521L117.021 439.384C126.053 423.792 144.51 393.259 152.935 383.496C158.315 377.26 169.439 367.169 178.357 365.238C178.354 364.941 178.354 364.644 178.352 364.342C178.321 339.462 207.933 291.511 224.085 280.801C232.691 275.095 242.199 270.901 254.285 274.926Z" fill="url(#paint2_linear)"/>
<path d="M189.784 394.132C186.955 392.186 161.275 385.433 148.118 383.994C140.247 384.808 112.301 433.196 109.538 439.082C106.774 444.966 98.034 443.363 95.6685 446.408C94.544 447.856 96.0243 458.411 94.0669 469.851C92.1097 481.291 96.9922 489.196 99.0813 491.005C105.706 496.741 107.075 462.435 115.355 451.779C134.258 441.424 193.323 396.566 189.784 394.132Z" fill="#EC7F1A"/>
<path d="M199.343 262.64C201.578 260.481 210.523 252.921 221.218 245.126C229.115 256.349 256.162 268.803 274.483 269.314C274.602 270.587 272.178 293.633 270.049 303.485C253.718 298.753 245.038 303.665 234.924 309.528C225.945 270.323 211.852 266.16 199.343 262.64Z" fill="#2B1C3A"/>
<path fill-rule="evenodd" clip-rule="evenodd" d="M375.424 88.3403C375.526 88.2446 375.627 88.1472 375.728 88.0498C380.695 83.2551 403.432 36.667 409.326 24.5894C410.062 23.0798 410.537 22.1095 410.679 21.8271C411.708 19.7943 408.653 16.418 405.563 15.9351C395.164 26.9102 360.705 64.0793 355.927 71.6371C355.23 72.738 354.619 73.7547 354.092 74.7021C338.5 82.684 304.317 107.417 294.696 117.302C284.272 128.012 284.466 146.453 294.774 159.032C305.081 171.611 324.23 172.842 334.803 163.721C343.629 156.107 368.397 108.798 375.424 88.3403Z" fill="url(#paint3_linear)"/>
<path d="M280.796 123.379C274.159 124.065 266.187 121.855 262.194 119.86C253.514 124.772 239.926 136.611 233.776 158.117C224.315 191.202 217.249 242.325 216.332 248.841C222.337 264.273 255.431 268.075 273.309 263.818C277.167 256.194 296.225 223.722 313.673 206.667C328.216 192.451 341.485 170.078 332.182 143.749C326.372 127.305 303.675 118.336 293.097 116.488C291.812 119.028 287.431 122.692 280.796 123.379Z" fill="url(#paint4_linear)"/>
<path d="M312.452 148.375C304.135 152.92 284.481 157.716 271.242 156.322L261.347 172.087C268.194 183.049 281.904 195.758 289.662 213.382C309.673 203.02 323.231 170.292 322.807 165.73C322.383 161.168 321.703 153.867 312.452 148.375Z" fill="white"/>
<path fill-rule="evenodd" clip-rule="evenodd" d="M266.334 123.445C272.243 134.071 265.227 152.456 256.534 165.396C251.946 172.224 240.322 183.832 229.309 193.993C240.441 196.159 261.483 196.068 279.412 190.321C282.576 191.598 284.38 194.622 281.881 200.499C264.543 210.549 201.422 227.708 188.798 222.97C186.977 222.286 185.435 221.375 184.147 220.289C183.467 219.923 182.855 219.437 182.321 218.823C177.204 212.931 178.235 203.391 181.314 191.638C184.123 180.913 198.029 149.044 220.095 133.847C236.554 122.512 260.425 112.819 266.334 123.445Z" fill="url(#paint5_linear)"/>
<path fill-rule="evenodd" clip-rule="evenodd" d="M233.015 255.282C248.097 253.722 283.052 253.981 293.98 256.863C301.065 258.733 308.242 262.75 311.194 267.976C315.765 274.33 312.887 288.99 309.673 294.571C303.117 305.951 242.765 352.862 234.766 356.901C228.365 360.131 226.444 357.493 225.951 352.194C226.621 351.03 227.355 349.751 228.146 348.373C233.917 338.311 242.691 323.014 251.523 309.541C235.653 315.27 220.019 319.451 210.629 318.46C187.561 316.031 177.081 292.399 190.387 271.759C199.128 258.2 213.787 256.952 227.451 255.789C229.33 255.628 231.191 255.47 233.015 255.282Z" fill="url(#paint6_linear)"/>
<path d="M302.56 308.149C299.306 305.918 274.951 300.57 259.824 298.924C250.774 299.86 215.178 354.111 211.999 360.86C208.821 367.611 200.908 364.415 198.189 367.908C196.922 369.533 197.168 378.446 196.438 388.958C192.418 403.019 196.672 411.939 198.807 414.398C206.482 423.236 209.162 387.641 218.685 375.419C240.421 363.539 306.626 310.94 302.56 308.149Z" fill="#ED8322"/>
<path d="M411.092 1.71775C409.19 2.61993 404.8 12.8102 404.883 16.8079C406.258 16.6657 409.834 18.9546 410.606 21.0319C412.697 18.6583 415.572 16.4372 417.556 13.892C418.235 13.0189 422.99 14.0819 425.312 11.0683C427.632 8.05459 426.685 3.52243 423.987 1.18662C421.816 -0.692826 415.152 -0.208234 411.092 1.71775Z" fill="#F6B3A6"/>
<path d="M298.071 199.824C296.346 201.789 285.471 202.228 281.128 200.577C281.817 198.961 280.083 192.706 278.109 190.963L278.148 190.898C280.89 186.457 281.849 184.904 285.386 183.484C288.94 182.06 290.281 184.659 291.86 184.496C296.321 184.036 299.114 180.243 300.625 184.43C301.84 187.799 301.752 195.634 298.071 199.824Z" fill="#F6B3A6"/>
<defs>
<radialGradient id="paint0_radial" cx="0" cy="0" r="1" gradientUnits="userSpaceOnUse" gradientTransform="translate(265.823 58.7266) rotate(90) scale(306.592 401.644)">
<stop stop-color="#485E80"/>
<stop offset="1" stop-color="#495F80" stop-opacity="0.01"/>
</radialGradient>
<linearGradient id="paint1_linear" x1="152.44" y1="88.5857" x2="23.6132" y2="288.452" gradientUnits="userSpaceOnUse">
<stop offset="0.0782682" stop-color="#FF7575"/>
<stop offset="1" stop-color="#DD315D"/>
</linearGradient>
<linearGradient id="paint2_linear" x1="180.967" y1="239.134" x2="126.862" y2="377.192" gradientUnits="userSpaceOnUse">
<stop stop-color="#624B76"/>
<stop offset="1" stop-color="#381C51"/>
</linearGradient>
<linearGradient id="paint3_linear" x1="346.457" y1="-25.831" x2="247.814" y2="84.7224" gradientUnits="userSpaceOnUse">
<stop stop-color="#3290C4"/>
<stop offset="1" stop-color="#106CA0"/>
</linearGradient>
<linearGradient id="paint4_linear" x1="237.446" y1="145.137" x2="269.928" y2="260.137" gradientUnits="userSpaceOnUse">
<stop stop-color="#3290C4"/>
<stop offset="1" stop-color="#106CA0"/>
</linearGradient>
<linearGradient id="paint5_linear" x1="234.95" y1="107.08" x2="201.634" y2="177.768" gradientUnits="userSpaceOnUse">
<stop stop-color="#3290C4"/>
<stop offset="1" stop-color="#106CA0"/>
</linearGradient>
<linearGradient id="paint6_linear" x1="228.775" y1="249.645" x2="226.307" y2="318.338" gradientUnits="userSpaceOnUse">
<stop stop-color="#624B76"/>
<stop offset="1" stop-color="#381C51"/>
</linearGradient>
</defs>
</svg>
