<svg id="seo-and-web" xmlns="http://www.w3.org/2000/svg" width="512.001" height="512" viewBox="0 0 512.001 512">
  <g id="Group_2" data-name="Group 2">
    <g id="Group_1" data-name="Group 1">
      <path id="Path_1" data-name="Path 1" d="M266.667,0A10.671,10.671,0,0,0,256,10.667V245.334A10.671,10.671,0,0,0,266.667,256H501.334A10.671,10.671,0,0,0,512,245.334C512,110.059,401.941,0,266.667,0Z" fill="#ff7171"/>
    </g>
  </g>
  <g id="Group_4" data-name="Group 4">
    <g id="Group_3" data-name="Group 3">
      <path id="Path_2" data-name="Path 2" d="M381.76,452.117l-147.093-189.1V32A10.671,10.671,0,0,0,224,21.333C100.48,21.333,0,131.392,0,266.666S110.059,512,245.333,512c60.523,0,93.269-10.965,134.763-45.1A10.674,10.674,0,0,0,381.76,452.117Z" fill="#ff7171"/>
    </g>
  </g>
  <g id="Group_6" data-name="Group 6">
    <g id="Group_5" data-name="Group 5">
      <path id="Path_3" data-name="Path 3" d="M501.333,277.333H288a10.656,10.656,0,0,0-8.277,17.365L418.39,466.367a10.674,10.674,0,0,0,7.552,3.947c.256.021.491.021.747.021a10.731,10.731,0,0,0,7.275-2.859A246.349,246.349,0,0,0,512,288,10.671,10.671,0,0,0,501.333,277.333Z" fill="#ff7171"/>
    </g>
  </g>
</svg>
